<svg width="200" height="50" viewBox="0 0 200 50" fill="none" xmlns="http://www.w3.org/2000/svg">
  <g id="wordmark">
    <path d="M 20 38 V 12 H 25 V 38 Z" fill="#000000" />
    <path d="M 25 12 L 37 38 H 32 L 20 12 Z" fill="#000000" />
    <path d="M 37 38 V 18 L 44 11 H 40 V 8 H 48 V 16 H 45 V 12 Z M 37 18 H 42 V 38 H 37 Z" fill="#000000" />
    <path d="M 60 28 A 6 6 0 1 1 60 16 A 6 6 0 1 1 60 28 Z M 60 19 A 3 3 0 1 0 60 25 A 3 3 0 1 0 60 19 Z M 66 16 H 69 V 28 H 66 Z" fill="#000000" />
    <path d="M 76 16 L 82 28 H 85 L 91 16 H 88 L 83.5 25 L 79 16 Z" fill="#000000" />
    <path d="M 97 20 H 100 V 28 H 97 Z M 97 15 H 100 V 18 H 97 Z" fill="#000000" />
    <path d="M 106 10 H 109 V 28 H 106 Z M 109 21 L 117 16 H 120 L 112 21.5 L 120 28 H 117 L 109 23 Z" fill="#000000" />
    <path d="M 132 28 A 6 6 0 1 1 132 16 A 6 6 0 1 1 132 28 Z M 132 19 A 3 3 0 1 0 132 25 A 3 3 0 1 0 132 19 Z" fill="#000000" />
  </g>
</svg>